<svg width="156" height="42" viewBox="0 0 156 42" fill="none" xmlns="http://www.w3.org/2000/svg">
<rect y="1" width="39" height="38" rx="10" fill="white"/>
<path d="M29.02 25.52C29.02 23.24 27.79 21.65 25.6 20.72C27.4 19.64 28.39 18.17 28.39 16.28C28.39 12.53 25.45 10.46 20.74 10.46H12.1V32H21.01C26.02 32 29.02 29.57 29.02 25.52ZM20.29 14.93C22.18 14.93 23.05 15.65 23.05 16.76C23.05 17.93 22.18 18.65 20.29 18.65H17.23V14.93H20.29ZM20.56 23.12C22.69 23.12 23.68 23.99 23.68 25.31C23.68 26.69 22.69 27.53 20.56 27.53H17.23V23.12H20.56Z" fill="black"/>
<path d="M61.58 26.82C61.58 24.36 60.14 22.53 57.47 21.78C59.54 20.88 60.77 19.14 60.77 17.1C60.77 13.47 58.16 11.46 53.81 11.46H46.34V33H54.23C58.7 33 61.58 30.75 61.58 26.82ZM53.6 14.1C56.21 14.1 57.62 15.33 57.62 17.34C57.62 19.35 56.21 20.58 53.6 20.58H49.37V14.1H53.6ZM54.02 23.22C56.84 23.22 58.43 24.54 58.43 26.73C58.43 29.01 56.84 30.36 54.02 30.36H49.37V23.22H54.02ZM75.073 26.46C75.073 28.95 73.423 30.63 71.383 30.63C69.403 30.63 68.023 29.49 68.023 26.73V17.1H64.993V27.33C64.993 31.41 67.213 33.3 70.423 33.3C72.583 33.3 74.443 32.13 75.283 30.48V33H78.103V17.1H75.073V26.46ZM85.3409 24.03C85.3409 21.21 87.0809 19.47 89.1509 19.47C91.4009 19.47 92.6009 21 92.6009 23.73V33H95.6309V22.71C95.6309 18.9 93.4709 16.8 90.2009 16.8C88.0109 16.8 86.2109 17.97 85.1309 19.74V17.1H82.3109V33H85.3409V24.03ZM106.015 39.12C110.515 39.12 113.185 36.63 113.185 32.46V17.1H110.365V19.92C109.285 17.91 107.485 16.8 105.205 16.8C101.215 16.8 98.5147 19.98 98.5147 24.72C98.5147 29.4 101.335 32.67 105.295 32.67C107.455 32.67 109.255 31.56 110.155 29.64V32.52C110.155 35.25 108.715 36.72 105.985 36.72C103.525 36.72 102.085 35.52 101.905 33.3H98.9647C99.1447 36.9 101.845 39.12 106.015 39.12ZM101.575 24.72C101.575 21.45 103.225 19.41 105.835 19.41C108.445 19.41 110.155 21.51 110.155 24.81C110.155 27.96 108.415 30.03 105.835 30.03C103.195 30.03 101.575 28.02 101.575 24.72ZM121.849 33V19.68H126.289V17.1H121.849V15.96C121.849 14.43 122.689 13.77 124.129 13.77C124.669 13.77 125.209 13.83 125.689 14.04V11.58C125.089 11.34 124.369 11.19 123.469 11.19C120.469 11.19 118.819 12.87 118.819 15.93V17.1H115.309V19.68H118.819V33H121.849ZM131.63 24.87C131.63 21.36 134.12 19.86 137.54 20.04V16.89C134.93 16.89 132.53 18.27 131.42 20.46V17.1H128.6V33H131.63V24.87ZM146.539 33.3C151.039 33.3 154.339 29.76 154.339 25.05C154.339 20.34 151.039 16.8 146.539 16.8C142.039 16.8 138.739 20.34 138.739 25.05C138.739 29.76 142.039 33.3 146.539 33.3ZM146.539 30.63C143.929 30.63 141.889 28.53 141.889 25.05C141.889 21.57 143.929 19.5 146.539 19.5C149.149 19.5 151.219 21.57 151.219 25.05C151.219 28.53 149.149 30.63 146.539 30.63Z" fill="white"/>
</svg>
